<svg xmlns="http://www.w3.org/2000/svg" viewBox="0 0 560 110" fill="none">
  <g fill="#FFF">
    <rect x="18" y="18" width="14" height="64" rx="7" transform="rotate(-45 18 18)" />
    <rect x="18" y="58" width="14" height="30" rx="7" transform="rotate(-45 18 58)" />
    <path d="M73.5 28.5a7 7 0 0 1 9.9 0 7 7 0 0 1 0 9.9L69.8 52l13.6 13.6a7 7 0 0 1 0 9.9 7 7 0 0 1-9.9 0L55 57a7 7 0 0 1 0-9.9l18.5-18.6Z" />
    <rect x="59" y="58" width="14" height="42" rx="7" transform="rotate(-45 59 58)" />
  </g>
  <text
    x="98"
    y="68"
    fill="#FFF"
    font-family="Arial, Helvetica, sans-serif"
    font-size="52"
    font-weight="400"
    letter-spacing="10"
  >
    SHORTLISTLY.
  </text>
</svg>
